<?xml version="1.0" encoding="utf-8"?>
<!-- Generator: Adobe Illustrator 21.1.0, SVG Export Plug-In . SVG Version: 6.00 Build 0)  -->
<svg version="1.1" id="Layer_1" xmlns="http://www.w3.org/2000/svg" xmlns:xlink="http://www.w3.org/1999/xlink" x="0px" y="0px"
	 viewBox="0 0 100 100" style="enable-background:new 0 0 100 100;" xml:space="preserve">
<style type="text/css">
	.st0{fill:#FFFFFF;}
</style>
<path class="st0" d="M50,2.2C23.5,2.2,2.2,23.5,2.2,50c0,19.6,11.7,36.6,28.7,43.5c0-3.2,0-7.4,1.1-11.1c1.1-3.7,6.4-26,6.4-26
	s-2.1-2.7-2.1-7.4c0-6.9,4.2-12.2,9-12.2c4.2,0,6.4,3.2,6.4,7.4s-2.7,11.1-4.2,17c-1.1,4.8,2.7,9,8,9c9,0,15.4-11.7,15.4-25.5
	c0-10.6-6.9-18-19.6-18c-14.3,0-23.3,10.6-23.3,22.8c0,4.2,1.1,6.9,3.2,9.6c1.1,1.1,1.1,1.6,0.5,2.7c0,1.1-0.5,3.2-1.1,3.7
	c-0.5,1.1-1.1,1.6-2.7,1.1c-6.9-2.7-9.6-10.1-9.6-18c-0.5-13.8,11.1-30.2,33.4-30.2c18.6,0,30.2,13.3,30.2,27.6
	c0,18.6-10.6,32.9-26,32.9c-5.3,0-10.1-2.7-11.7-5.8c0,0-2.7,11.1-3.2,13.3c-1.1,3.7-3.2,7.4-4.8,10.1c4.8,1.1,9,1.6,13.8,1.6
	c26.5,0,47.8-21.2,47.8-47.8S76.5,2.2,50,2.2"/>
</svg>
