<?xml version="1.0" encoding="utf-8"?>
<!-- Generator: Adobe Illustrator 21.1.0, SVG Export Plug-In . SVG Version: 6.00 Build 0)  -->
<svg version="1.1" id="Layer_1" xmlns="http://www.w3.org/2000/svg" xmlns:xlink="http://www.w3.org/1999/xlink" x="0px" y="0px"
	 viewBox="0 0 400 400" style="enable-background:new 0 0 400 400;" xml:space="preserve">
<style type="text/css">
	.st0{fill:none;stroke:#FFFFFF;stroke-width:4;stroke-miterlimit:10;}
	.st1{fill:none;stroke:#FFFFFF;stroke-width:4;stroke-linecap:round;stroke-linejoin:round;stroke-miterlimit:10;}
</style>
<path class="st0" d="M206.5,303.3c-5.1,0-9.2-0.3-14.4-1c-57.7-8.1-97.9-61.5-89.8-119.2c7.4-52.3,51.9-90.2,103.1-90.8L206.5,303.3
	z"/>
<path class="st0" d="M142.9,144.2c4.5-19.5,18.3-26.8,26-20.3c7.8,6.5,8.4,28.5-2,31.6S140.8,153.5,142.9,144.2z"/>
<path class="st0" d="M147.8,226.2c6.1,9.4,4.5,11.6-1.1,12.2c-5.6,0.6-14.7-7.7-11.9-13.1C137.7,220,145,221.7,147.8,226.2z"/>
<path class="st0" d="M127,194.1c17.4-0.3,18.9-3.9,14.7-10.9s-22.9-11.1-27.3-3.6C110.1,187.1,118.8,194.3,127,194.1z"/>
<path class="st0" d="M189.7,243.1c7.1,6.8,8.1,20.3,7.3,27.3c-0.8,7.2-0.8,13.1-5.6,14.9c-9.5,3.4-34.3-3.8-27.6-26.6
	S182.8,236.5,189.7,243.1z"/>
<path class="st0" d="M160.3,176.9c16.2-11.7,35-0.8,36.6,9.2c1.6,10-21.9,26.6-31.8,22.1C155.2,203.7,152.6,182.4,160.3,176.9z"/>
<line class="st1" x1="225.3" y1="186.5" x2="259.7" y2="172.8"/>
<line class="st1" x1="237" y1="200.2" x2="264.9" y2="224.6"/>
<line class="st1" x1="257.2" y1="196" x2="283.4" y2="206.2"/>
<line class="st1" x1="293.9" y1="193.2" x2="297.3" y2="221.2"/>
<line class="st1" x1="251.8" y1="252.1" x2="272.8" y2="234.4"/>
<line class="st1" x1="261.8" y1="161.2" x2="287.1" y2="180.5"/>
<line class="st1" x1="235.5" y1="135.7" x2="220.5" y2="167.1"/>
<line class="st1" x1="265.2" y1="138.3" x2="242.8" y2="147.3"/>
<line class="st1" x1="245" y1="124.7" x2="215.5" y2="121.1"/>
<line class="st1" x1="225.2" y1="232.9" x2="248.8" y2="232.1"/>
<line class="st1" x1="228.2" y1="256" x2="253" y2="273.3"/>
<line class="st1" x1="217.4" y1="283.6" x2="242.3" y2="285.5"/>
</svg>
