<?xml version="1.0" encoding="utf-8"?>
<!-- Generator: Adobe Illustrator 21.1.0, SVG Export Plug-In . SVG Version: 6.00 Build 0)  -->
<svg version="1.1" id="Layer_1" xmlns="http://www.w3.org/2000/svg" xmlns:xlink="http://www.w3.org/1999/xlink" x="0px" y="0px"
	 viewBox="0 0 400 56" style="enable-background:new 0 0 400 56;" xml:space="preserve">
<style type="text/css">
	.st0{fill:#FFE6E6;}
</style>
<path class="st0" d="M181.4,26.3c0,0-3.2,3.7-3.2,8.6s3.2,8.6,3.2,8.6c0,0.5-0.6,1-1.4,1c0,0-17.4-1.8-38.4-3.5
	c-21-1.8-134.2-5-134.2-5c-1.7-0.1-1.7-1.9,0-2c0,0,109.4-3.7,134.3-5.2s38.4-3.5,38.4-3.5C180.9,25.2,181.4,25.6,181.4,26.3z"/>
<path class="st0" d="M221.7,43.5c0,0,3.2-3.7,3.2-8.6s-3.2-8.6-3.2-8.6c0-0.5,0.6-1,1.4-1c0,0,17.4,1.8,38.4,3.5
	s134.3,4.9,134.3,4.9c1.7,0.1,1.7,1.9,0,2c0,0-109.4,3.7-134.3,5.2s-38.4,3.5-38.4,3.5C222.3,44.4,221.7,44,221.7,43.5z"/>
<path class="st0" d="M214.2,41.7c-1.1-0.4-1.6,6-11.3,6c-6.6,0-11-4.7-11-10.4c0-5.2,3-9,7.4-10.3c0.7-0.2,1.6-0.4,2.4-0.6
	c0,3.6,0,7.7,0,8.4c0,4.6-1.8,3.2-1.8,4.2c0,0.4,0.3,0.7,3,0.7s2.9-0.3,2.9-0.7c0-1.1-1.8,0.3-1.8-4.2c0-1.3,0-5.4,0-8.9
	c5.2-1.8,9.8-4.5,9.8-10.9c0-2-1.7-8.2-9.1-8.2c-7.4,0-8.7,3.4-8.7,4.9c0,1.8,1.4,2.8,1.9,2.3c0.5-0.4-0.3-0.8-0.2-1.9
	c0.1-2.4,4-3.1,4-3.1s0,8.7,0,15.4c-0.8,0.2-1.7,0.3-2.5,0.6c-4.4,1.1-10.7,5.1-10.7,12.7c0,8.4,6.9,12.3,14.3,12.3
	C213.5,50.1,215,41.9,214.2,41.7z M211,14.9c0,5.2-3.3,7.6-6.9,8.8c0-6.5,0-14.6,0-15.1C206.2,8.4,211,10.1,211,14.9z"/>
</svg>
