<?xml version="1.0" encoding="utf-8"?>
<!-- Generator: Adobe Illustrator 21.1.0, SVG Export Plug-In . SVG Version: 6.00 Build 0)  -->
<svg version="1.1" id="Layer_1" xmlns="http://www.w3.org/2000/svg" xmlns:xlink="http://www.w3.org/1999/xlink" x="0px" y="0px"
	 viewBox="0 0 400 58" style="enable-background:new 0 0 400 58;" xml:space="preserve">
<style type="text/css">
	.st0{fill:#4C3548;}
</style>
<path class="st0" d="M181.5,27.3c0,0-3.2,3.7-3.2,8.6s3.2,8.6,3.2,8.6c0,0.5-0.6,1-1.4,1c0,0-17.3-1.8-38.2-3.5S8.4,37,8.4,37
	c-1.7-0.1-1.7-1.9,0-2c0,0,108.9-3.7,133.6-5.2c24.7-1.5,38.2-3.5,38.2-3.5C181,26.2,181.5,26.7,181.5,27.3z"/>
<path class="st0" d="M221.6,44.4c0,0,3.2-3.7,3.2-8.6s-3.2-8.6-3.2-8.6c0-0.5,0.6-1,1.4-1c0,0,17.3,1.8,38.2,3.5
	c20.9,1.7,133.6,4.9,133.6,4.9c1.7,0.1,1.7,1.9,0,2c0,0-108.9,3.7-133.6,5.2c-24.8,1.5-38.2,3.5-38.2,3.5
	C222.2,45.3,221.6,44.9,221.6,44.4z"/>
<path class="st0" d="M214.2,42.6c-1.1-0.4-1.6,6-11.2,6c-6.5,0-11-4.6-11-10.3c0-5.2,3-9,7.4-10.2c0.7-0.2,1.6-0.4,2.4-0.6
	c0,3.6,0,7.7,0,8.3c0,4.5-1.8,3.2-1.8,4.2c0,0.4,0.3,0.7,3,0.7s2.9-0.3,2.9-0.7c0-1.1-1.8,0.3-1.8-4.2c0-1.3,0-5.4,0-8.9
	c5.2-1.8,9.7-4.4,9.7-10.9c0-2-1.7-8.1-9.1-8.1c-7.4,0-8.7,3.4-8.7,4.9c0,1.8,1.4,2.7,1.9,2.3c0.5-0.4-0.3-0.8-0.2-1.9
	c0.1-2.4,4-3.1,4-3.1s0,8.7,0,15.3c-0.8,0.2-1.7,0.3-2.5,0.6c-4.3,1.1-10.7,5.1-10.7,12.7c0,8.3,6.9,12.2,14.3,12.2
	C213.4,50.9,214.9,42.8,214.2,42.6z M211,16c0,5.2-3.3,7.6-6.9,8.8c0-6.4,0-14.6,0-15C206.1,9.5,211,11.2,211,16z"/>
</svg>
