<?xml version="1.0" encoding="utf-8"?>
<!-- Generator: Adobe Illustrator 21.1.0, SVG Export Plug-In . SVG Version: 6.00 Build 0)  -->
<svg version="1.1" xmlns="http://www.w3.org/2000/svg" xmlns:xlink="http://www.w3.org/1999/xlink" x="0px" y="0px"
	 viewBox="0 0 750 750" style="enable-background:new 0 0 750 750;" xml:space="preserve">
<style type="text/css">
	.st0{fill:#FFFFFF;}
</style>
<g id="Layer_2">
	<path class="st0" d="M535.2,535.1c-12.9-4.8-20.2,76.6-141,76.6c-82.7,0-139.1-59.1-139.1-131c0-65,37.5-113.2,93.9-129.5
		c9.4-2.7,20.1-5.3,31-8c0.1,46,0.1,97,0.1,105.3c0,57.9-23.4,39.5-23.2,53.2c0,5.9,3.8,9.7,37.1,9.7s36.7-3.8,36.7-9.4
		c-0.1-14-22.3,4.1-22.3-53.4c0-16.1-0.1-67.6-0.2-112.8c65.4-22.1,122.8-55.9,122.8-137c0-25.7-21.7-102.6-114.4-102.6
		s-109.8,43.3-109.8,61.5c0,22.4,17.7,34.9,24.7,28.9c7-6-3.7-10.2-3.2-23.8c1-30.6,51.4-39,51.4-39s0.1,109.8,0.3,194.2
		c-10.7,2.6-21.8,4.7-32.7,7.5c-54.6,14-135.2,63.7-135.2,160.4c0,105.2,86.3,154.8,180.2,154.8C525.5,640.7,544,538.4,535.2,535.1z
		 M494.3,198.8c0,65-41.8,96.1-86.2,111.2c-0.2-81.8-0.4-183.8-0.4-189.7C433.8,116.8,494.3,139.2,494.3,198.8z"/>
</g>
<g id="Layer_3">
</g>
</svg>
