<?xml version="1.0" encoding="utf-8"?>
<!-- Generator: Adobe Illustrator 21.1.0, SVG Export Plug-In . SVG Version: 6.00 Build 0)  -->
<svg version="1.1" id="Layer_1" xmlns="http://www.w3.org/2000/svg" xmlns:xlink="http://www.w3.org/1999/xlink" x="0px" y="0px"
	 viewBox="0 0 400 400" style="enable-background:new 0 0 400 400;" xml:space="preserve">
<style type="text/css">
	.st0{fill:#FFFFFF;}
</style>
<rect x="226.5" y="124.5" transform="matrix(-1.836970e-16 1 -1 -1.836970e-16 380.4768 -84.0325)" class="st0" width="11.4" height="47.4"/>
<rect x="223.1" y="149.8" transform="matrix(-1.836970e-16 1 -1 -1.836970e-16 396.7842 -58.7462)" class="st0" width="9.4" height="38.4"/>
<rect x="218.9" y="173.9" transform="matrix(-1.836970e-16 1 -1 -1.836970e-16 411.6818 -34.7029)" class="st0" width="8.7" height="29.3"/>
<rect x="215" y="196.5" transform="matrix(-1.836970e-16 1 -1 -1.836970e-16 424.4029 -12.0169)" class="st0" width="6.4" height="19.3"/>
<rect x="211.1" y="216.1" transform="matrix(-1.836970e-16 1 -1 -1.836970e-16 434.6303 7.581)" class="st0" width="4.8" height="9.9"/>
<path class="st0" d="M194.4,138.4h-7.2c-2.6,0-4.7,2.1-4.7,4.7v90.5h16.6V143C199.1,140.5,197,138.4,194.4,138.4z M194.3,229.4h-7
	v-85.9h7V229.4z"/>
<path class="st0" d="M190.8,229.4c-16.1,0-29.1,13-29.1,29.1c0,16.1,13,29.1,29.1,29.1s29.1-13,29.1-29.1
	C219.9,242.4,206.9,229.4,190.8,229.4z M190.7,281.9c-13,0-23.5-10.5-23.5-23.5c0-13,10.5-23.5,23.5-23.5c13,0,23.5,10.5,23.5,23.5
	C214.2,271.4,203.6,281.9,190.7,281.9z"/>
</svg>
