<?xml version="1.0" encoding="utf-8"?>
<!-- Generator: Adobe Illustrator 21.1.0, SVG Export Plug-In . SVG Version: 6.00 Build 0)  -->
<svg version="1.1" id="Layer_2" xmlns="http://www.w3.org/2000/svg" xmlns:xlink="http://www.w3.org/1999/xlink" x="0px" y="0px"
	 viewBox="0 0 400 400" style="enable-background:new 0 0 400 400;" xml:space="preserve">
<style type="text/css">
	.st0{fill:#FFFFFF;}
</style>
<path class="st0" d="M144.9,367.9l4.3,1.5c0,0,9.1-19.7,15-39.3c0,0,1.2,1.3,2.8,1s6.4,2.9,9.4,6.2c0,0,1.1-0.3,1.1-0.9
	c0,0,4,5.1,8.2,8.3c0,0,0.6-0.5,0.6-1c0,0,9.2,6.8,10.2,8c0,0,0-1.9,4.9,2.7c4.9,4.6,9.8,6,9.8,6s0.4-2.3,9.1,4.3
	c8.7,6.7,20,8.2,19.8,6.9c-0.1-0.9-10.2-6.4-14.6-11c-4.6-4.8-13.2-11.8-14.9-13.1c-1.7-1.3,0.3-1.8,0.3-1.8s-8.3-4.3-10.3-5.2
	c-1.9-0.9-1.9-1.7-1.7-2c0,0-14.2-7.6-25.1-9.2c-6.3-1-0.7-1.8,0.9-1.3c1.6,0.5,2.4-0.1,2.4-0.1s3.8,1.9,5.6,0.7
	c0,0,7.4,5.5,10.4,5.7c0,0,0-1.7,0.3-1.5c0.4,0.2,11,5.6,11.9,5.7c0,0-0.4-2.2,1.4-1.4c1.8,0.8,7.3,3.2,11.1,2.8c0,0-1-1,0.4-0.9
	c1.4,0.1,9.8,3.3,12.7,1.6c0,0-1.2-2.8-0.8-2.6c0.4,0.1,10.6,1.7,12.3,0.2c0,0-0.2-1.6-0.9-2c-0.7-0.4,7.7,0.6,9.8-1.7
	c0,0-1.6-1.8-1-1.7s9.7,0.6,11.5-1.8c0,0-2.2-2.4-1.7-2.4s17.5-0.4,13.8-4.3c0,0,10-2.8,11.3-3.4c1.3-0.6-0.8-1.4,0.8-2
	c1.6-0.6,17.6-6.6,26.6-8.6c9-1.9,12.6-2.1,15.1-3.4s6.7-2.3,3.1-2.5s-10.6-0.7-15.6-0.3c-4.9,0.4-22.4,1.6-29.9,2.7
	c-7.5,1.1-10,3-10.3,2s0.5-2.1-0.5-2.1s-6.9,1.1-11.6,3.8c-1.2,0.7-1.6-1.4-1.1-1.9s-2.4-0.9-5,0.4s-6,2.2-6,1.5
	c-0.1-0.7-0.1-1.1-1.1-1.2c-1-0.1-3-0.4-5.3,1.1c-2.4,1.5-5,1.5-4.9,0.2c0,0-2.5-0.7-5.8,0.8s-6.1,1.1-6.6,0.1c0,0-2,1.2-4.4,1.2
	s-11.7,0.2-13.3,2.5c0,0-3.2-0.6-6.6,1.1S196,318,196,318s-5.7,2.8-10.3,3.1c-4.6,0.4-7.9,2.7-7.9,2.7s-1.3-0.8-4.4,1.1
	c-3.2,1.9-3.2,0.8-2.4,0.1c0.8-0.8,2.4-2.6,2.4-2.6s3.8-0.8,5.4-2.8c1.7-2,4.2-2,4.2-2s2.8-1.8,4.4-2s2-2.5,2-2.5s12.3-0.1,14-2
	c0,0-1-0.8-0.6-0.8c0.3,0,4.1,0.4,8.3-0.3c4.2-0.7,6.2-1.8,6.2-1.8s-1.3-0.3-1-0.5s5.8-1.7,9.1-2.1c3.3-0.4,5.2-1.3,5.2-1.3
	s-1.4-1.9-0.7-1.9s13-1.2,14.3-4c0,0-1.7-1.8-1.3-2s8.7-1,13-3.5c4.3-2.5-3.4-3.7,0.5-4.6c3.9-0.9,13.7-2.7,15.2-5.5
	c0.5-0.9-5.9-2.2-1.7-3.2c4.2-1,12.2-2.3,15.7-6.6c0,0-4-3-3.5-3c0.5-0.1,12.5-3.3,14.5-6.8c0.8-1.4-4.4-2-1.5-2.9
	c2.9-0.9,10.2-2.9,11.8-7.1c0,0-2.4-1.2-2.9-1.9c0,0,10.7-2.7,12.5-8.5c0,0-2.9-1-3.5-2.2c0,0,8.8-3.4,8.8-4.5
	c0-1.2-1.5-0.6,0.5-1.5c2-0.8,7-4.4,6.8-6.6c0,0-3.3-0.5-4-1.6c0,0,11.5-6.7,14.4-13.1c0,0-2.6,0.4-3.2-1.2c0,0,6.3-5.8,8.4-8.8
	c2.1-2.9,22.6-22.2,28.2-24.4c0,0,1.4-6.7,0.7-6.7S331,195.5,328,199.1c-3,3.6-0.7-2.1-1.5-2.1s-15.6,8.8-17.4,11.5c0,0-1.9-2-2-3.2
	c0,0-9.4,4.4-12.5,9.9s-2.8-1-2.8-1s-4,1.5-6.9,5.1s-3.8,4.6-3.8,4.6l-0.5-1.8c0,0-5.4,2.2-8.4,6.3s-3.3,4-3.3,3.6s-0.2-2-0.7-2
	s-4.1,2-5.7,4c-1.6,2-3.7,4.2-3.7,4.2s-1.2-1.2-0.7-2s-4.7,2.6-6,4.4s-4.2,5-4.2,5s-1.2-1.2-1.2-1.8c0-0.7-5.9,3.5-6.6,5.4
	c-0.7,1.9-2.2,3.7-2.8,3.3s-0.4-1.2-2-0.3s-7,6.5-7.6,8.1c-0.7,1.6-1.3,0.7-1.3-0.5s-4.6,4.6-5.5,4.9s-2.3,4.7-2.7,4.8
	c-0.4,0.1-1.5-0.5-1.5-1.2s-6.7,7.4-7,9.3c0,0-1.7-0.2-2.9,1.2s-2.6,2.5-3.1,4.1c-0.5,1.6-3.3,3.8-4.1,3.8s-7.3,7.1-7.3,8.4
	s-2.6,0.5-2.6,0.5s-6.1,10-8,11.2s-2,0.4-2,0.4s-4.4,8.2-6.9,10.6c-2.5,2.4-2.9,5.7-6.1,5.7c0,0-1.2-9.5,4.9-15.3
	c4.1-3.8,3.8-4.2,3.8-4.2s-1.2-4.1,4.7-7.4s6.5-5.8,6.5-5.8l-1.8-1.2c0,0,11.8-11.3,14.1-11.9c0,0-0.7-0.4-0.7-1.7
	c0-1.3,1.6-3,2.2-3.6c0.7-0.6,7.8-7.3,7.8-8.3c0,0-1.5-0.7-1.2-1.6c0,0,4.6-4.9,7.6-7.6c3-2.7,4.1-5.1,4.1-5.1s-2.5-0.6-2.5-1.6
	c0,0,9.3-7.3,9.8-10.2c0,0-1.7-1.3-2.2-1.7c0,0,8.7-7.1,9-9.8c0,0-2.5-0.3-2.5-1.8c0,0,3.4-3.6,5.5-5.1s2.7-4.4,2.7-4.4l-2.9-1.7
	c0,0,10.9-11.8,9.5-12.5c-1-0.5-4.1,0.2-4.2-1c0,0,12.5-13,12.5-16.4c0,0-4.2,0.4-4.4-0.6c0,0,9.1-7.4,10.2-14.4
	c0,0-3.8,1.5-4.9-0.3c0,0,9.9-9.9,9.8-15.2c0,0-5.3,1-4.6-0.1s9.6-9.3,9.6-14.9c0,0-5.5,0.9-4.8-0.3c0.7-1.2,9.6-9.6,8.6-16.5
	c0,0-5,1.8-3,0.1c2-1.7,6.8-9.4,6-13.8c0,0-5.8,1.5-3.8-0.4c2-2,7.5-8.9,6.2-13c0,0-5.2,1.2-4-0.5s7.1-9.7,6.2-13.6
	c-0.3-1.2-5.1,1.4-4.2-0.9s7.3-13.9,10.6-29.4s6.4-27.6,8.6-33.1s-10.3,8.2-13.8,16.4c-5.5,12.7-18.1,31.9-18.1,33s-1.2-3.3-2.2-2.7
	c-0.9,0.7-7,12.5-7.2,15.2s-2.6-2.7-2.6-3.2s-6.1,5.5-6.1,12.9c0,0-2.5-2.4-2.6-4s-5.5,8-5.5,15.4c0,0-2.2-1.7-2.7-3.4
	c-0.5-1.7-4.5,7.7-4.4,12.8c0,0-3-1.7-3-2.7s-2.7,5.1-2.6,9c0.1,3.9-0.7,4.1-0.7,4.1s-2.6-2.3-2.6-3.6c0-1.2-4.3,3.6-4.3,8.9
	c0,5.2-0.7,8.4-0.7,8.4s-3.9-2.4-3.9-3.4s-3.1,5.7-3.2,9.3c-0.1,3.6,0.8,8.5,0.2,8.5s-3.3-2.1-3.3-3.4s-2.7,5.1-2.7,9.5
	s-1.1,9.1-1.1,9.1s-3-1.8-3.6-3.8s-3.7,14.4-2.9,17.4c0,0-3-1.7-3.3-2.4s-2.1,4.5-1.8,7.6c0.2,3.2,1.7,10.4-1.7,5.5
	c-3.7,3.2-1,13.4-1.5,14.3c-0.5,1-3.6-1.5-3.9-1.6c-0.2-0.1-1.4,5.1-0.7,8.5c0.7,3.3,0.7,5.3-2.2,3.9c0,0-2.2,2.7-1.6,6.1
	c1,6.1,0.4,8.3,0.4,8.3s-2.2-0.4-2.7-1c-0.4-0.5-1,4.8-0.6,8.1s2.1,10.4-1.6,7.6c0,0-0.2,17.3-1.6,17.6c-1.4,0.3-2.2-0.6-2.2-0.6
	s-0.3,19.1-1.2,19.2c-0.9,0.1-1.9,0.2-1.9,2.4c0,2.2-1.3,15.3-2.1,15.6c-0.7,0.2,0.8,6.7-0.9,12.6c-1.7,5.9-2.1,14.1-3.2,14.3
	c-1,0.1-3.6-3.6-2.6-9.3s1-6.2,0.3-6.8c0,0,0.9-8.2,2.4-10.1c0,0-1.7-1.6-0.9-2.9c0.8-1.2-0.2-3.5,1.1-5.5c1.3-1.9,2.6-5.9,1.3-8.2
	c0,0,0.1-4.4,2.3-8c2.2-3.5,1.5-6.2,1.5-6.2s-1.2,0.7-1.2-0.1s1.5-8.4,2.7-10.4c1.2-2,0.3-5.1-0.6-5.1c0,0,0.3-3.3,1.4-6.3
	c1.1-3,0.2-5.4,0.2-5.4s-2.6,1.6-1.8-2s2.3-8.1,1.2-11.8c0,0-2.6,2.5-1.7-1c0.9-3.5,2.1-11.5,2.1-12.8c0,0-4.7,1.7-3.5-0.9
	c1.2-2.7,2.9-10,1.5-13.2c0,0-3.6,1.4-2-3.6s0.6-10.3-0.2-10.2c-0.8,0-3.2,2.8-3,0.4c0.2-2.3,1.6-8-0.1-13.8c0,0-2,1.8-3.3,1.8
	c0,0,2.7-7.6-0.5-17.1c0,0-3.1,2.8-3,1.5c0.1-2.5,2-13-2.1-17.1l-2.9,2.5c0,0,1.1-9.9-0.9-14.1c-2-4.2-3.7,3.3-3.8,0
	s-0.3-11.9-1.9-13.8c-0.5-0.6-2.6,3.7-2.6,1s-1.4-10-2.4-12c-1-2-4.7-14.2-7.3-19.4c-2.6-5.2-6.4-23.9-15.1-26.8
	c-1-0.3,5.3,13.1,6.7,30.2c1.4,17.1,2.2,25.8,2.6,26.4c0.3,0.6-0.9,0.6-1.5,0.1s-1.2,7.2-0.6,10.9s1.9,5.6,1.5,5.9
	c-0.4,0.2-1.5,1.5-4.9-1.6c0,0-4.1-3.5,2.6,18.2c0,0-2.5,0.2-4.3-1.1s-1.2,10.5,2.1,13.3c0,0-2.8,0.5-3.6-0.5s-0.1,5.9,1.3,7.6
	c1.4,1.7,2.2,4.8,0.5,3.9c-1.7-1-2.5-0.9-2.5-0.9s1.9,11.8,4.3,14.2c0,0-2,1.4-3.5-0.4c-1.4-1.8-0.1,11.4,4.3,13.7
	c0,0-2.8,0.2-3.3-0.5c0,0-0.5,5.5,2.7,10.2c3.2,4.6,2.6,4.8,1.2,4.3s-2.7-0.7-2.7-0.7s1.7,11.3,4.6,13.6c0,0-1.9,0.4-2.6,0.4
	s0.1,6.7,4.8,12.2c0,0-1.2,1.1-2.2,0.7c0,0,0.7,5,3.5,8.8s3.3,4.8,2.3,4.9c-1,0.1-1.9,0.1-1.9,0.1s2.3,5.8,4.5,8.8
	c2.2,3,2.4,4.9,1.4,4.9s-1.8-0.1-1.1,1c0.7,1.1,6.4,11.4,7.4,12.7s-1.1,1.2-1.1,1.2s6.9,11.5,7.4,12.1c0.5,0.6-1.7,0.1-1,1.4
	s7,12.8,7,12.8l-1,0.5c0,0,2.6,3.6,3.3,7.8c0.7,4.2,2.3,7.8,2.3,7.8s-2.5-0.3-6-8.2c-1.7-3.8-2.1-3-2.1-3s-4.9-9-5.6-9.5
	s1.1-2.5-2.1-6.5c-3.2-4-7.4-8.6-7.9-12.2c0,0-2.5-2.8-3.7-6.7c-1.1-3.9-3-4.2-3-4.2s-2.1-0.5-3.9-6.4c-0.9-3.1-3.3-4.7-3.9-3.8
	c-0.6,0.9-5.1-9.7-5.8-9c-0.7,0.7-1.6,1.1-2.1,0c-0.4-1.1-4.8-9.2-6.2-9.7c0,0-1.4,1.1-1.9,1.1s-6.9-13-7.9-13.4s-1.4,0.6-2.1,1.1
	c0,0-6.6-10-8.2-10c0,0-0.3,0.9-1,1.1c-0.7,0.2-2.8-5.7-5-7.1c0,0-1.7-0.2-1.9-1.1c-0.2-0.9-17.6-23.5-27.3-37.8
	c-2.4-3.6,1.3,13.8,3.7,17.1s11.1,24.6,12.9,27.8c1.9,3.2,4.2,7,4.2,7s-1.2,0.3-1.8,0.4c-0.6,0.1,4.6,11,8.1,13.7
	c0,0-1.1,0.9-2.4,0.9c0,0,4.9,8.1,8.2,10.6c1.3,1-2.8,0.2-3.2,0.7s2.6,6.4,5.4,8.8c2.8,2.4,5.2,5.1,3.9,5.2
	c-1.3,0.1-2.9,0.5-2.9,0.5s1.2,4.4,4.3,5.9s3.3,2.4,3.3,2.4l-0.9,0.5c0,0,0,2.5,4.9,4.8s3.5,3.5,2.5,3.5c0,0,0.1,3.2,6.6,6.1
	c5.4,2.4,1.6,2.5,1.6,2.5s2.6,2.8,4.8,3.8c2.2,1,7,3.1,6.5,3.4s-1,0.5-1,0.5s4,2.8,6.2,3.6s4.3,1.8,4,2s-1.1,0.7-1.1,0.7
	s7.3,4.6,7.9,4.8l-1.2,0.5c0,0,5.9,2.6,9.4,4.2c3.5,1.6,9.2,4.7,9.2,4.7s-21.2-8.3-23.3-8.3c0,0,1.1,0.7,0,0.7
	c-1.1,0-8.7-4-11.4-3.7c-2.7,0.3-1,0.9-1,0.9s-19.6-1-25.9-1c-6.2,0-14.2,3.7-14.5,4.2s4.4-0.3,8.3,0s21.5,4.4,24.2,4.8
	c0,0-0.6,1.4,2,1.4c2.5,0,4.3,1.1,4.3,1.1l-0.8,0.7c0,0,5.3,0.3,9.3,0.7c4,0.3,4.2,1.6,4.2,1.6l-0.6,0.7c0,0,4.5,0.6,7.3,0
	c2.8-0.6,3.1,0.9,3.1,0.9s4.8-0.9,6.2-0.4s1,1,1,1s2.9,0.4,6.1-0.6c3.2-1,4.3,0,5.4,0.6c1.1,0.6,3.9,2.4,3.9,2.4
	S148.5,363.7,144.9,367.9z"/>
</svg>
