<?xml version="1.0" encoding="utf-8"?>
<!-- Generator: Adobe Illustrator 21.1.0, SVG Export Plug-In . SVG Version: 6.00 Build 0)  -->
<svg version="1.1" id="Layer_1" xmlns="http://www.w3.org/2000/svg" xmlns:xlink="http://www.w3.org/1999/xlink" x="0px" y="0px"
	 viewBox="0 0 184 184" style="enable-background:new 0 0 184 184;" xml:space="preserve">
<style type="text/css">
	.st0{fill:#FFFFFF;stroke:#2C0147;stroke-width:0.9448;stroke-linecap:round;stroke-linejoin:round;stroke-miterlimit:10;}
	.st1{fill:none;stroke:#2C0147;stroke-width:0.9448;stroke-linecap:round;stroke-linejoin:round;stroke-miterlimit:10;}
	.st2{fill:#FFFFFF;stroke:#2C0147;stroke-width:2.8343;stroke-linecap:round;stroke-linejoin:round;stroke-miterlimit:10;}
	.st3{fill:none;stroke:#2C0147;stroke-width:2.8343;stroke-linecap:round;stroke-linejoin:round;stroke-miterlimit:10;}
</style>
<path class="st0" d="M178.8,101.7c0,10.4-38.6,24.7-86.1,24.7S6.5,112,6.5,101.7"/>
<path class="st1" d="M178.8,108c0,10.4-38.6,23.7-86.1,23.7S6.5,118.3,6.5,108"/>
<path class="st2" d="M153.5,89.5c15.6,3.4,25.2,8.1,25.2,13.2"/>
<path class="st2" d="M153.5,89.5"/>
<path class="st2" d="M6.5,102.7c0-5.2,9.5-9.8,25-13.2"/>
<path class="st3" d="M92.6,178.3c-47.6,0-85.8-11.1-85.8-21.4"/>
<path class="st3" d="M178.8,156.5c0,10.4-38.6,21.7-86.1,21.7"/>
<path class="st3" d="M153.6,57l-0.5,42.6c0,0-11.5,11.9-60.5,11.9s-60.8-12-60.8-12v-43"/>
<line class="st3" x1="178.8" y1="102.7" x2="178.8" y2="157.2"/>
<line class="st3" x1="6.8" y1="102.7" x2="6.8" y2="157.2"/>
<path class="st3" d="M121.1,48.7c18.5,1.5,32.5,4.5,32.5,7.8"/>
<path class="st3" d="M31.8,56.5c0-3.2,13.8-6.2,32.2-7.7"/>
<path class="st3" d="M120.4,13.3v38.4c0,0-5.3,5.9-27.8,5.9s-27.9-5.9-27.9-5.9V13.3"/>
<path class="st3" d="M64.7,13.3c0-4,12.5-7.2,27.9-7.2s27.9,3.2,27.9,7.2"/>
<path class="st1" d="M120.6,13.3c0,4-12.5,7.2-27.9,7.2s-27.9-3.2-27.9-7.2"/>
<path class="st1" d="M120.6,18.2c0,4-12.5,7.2-27.9,7.2s-27.9-3.2-27.9-7.2"/>
<path class="st1" d="M153.5,56.5c0,4.8-27.2,13.7-60.9,13.7s-60.9-8.9-60.9-13.7"/>
<path class="st1" d="M153.5,62.3c0,4.8-27.6,13.1-61.2,13.1s-60.5-8.3-60.5-13.1"/>
</svg>
