<?xml version="1.0" encoding="utf-8"?>
<!-- Generator: Adobe Illustrator 21.1.0, SVG Export Plug-In . SVG Version: 6.00 Build 0)  -->
<svg version="1.1" id="Layer_1" xmlns="http://www.w3.org/2000/svg" xmlns:xlink="http://www.w3.org/1999/xlink" x="0px" y="0px"
	 viewBox="0 0 166 156" style="enable-background:new 0 0 166 156;" xml:space="preserve">
<style type="text/css">
	.st0{fill:none;stroke:#231F20;stroke-width:5;stroke-linecap:round;stroke-linejoin:round;stroke-miterlimit:10;}
	.st1{fill:none;stroke:#231F20;stroke-width:2;stroke-linecap:round;stroke-linejoin:round;stroke-miterlimit:10;}
</style>
<path class="st0" d="M153.9,70c0,37.5-11.4,75.8-71,75.8s-71-38.3-71-75.8"/>
<path class="st0" d="M153.9,70c0-4.1-13.9-7.4-35.4-9.2"/>
<path class="st1" d="M11.9,70c0,6,31.8,10.9,71,10.9s71-4.9,71-10.9"/>
<path class="st0" d="M102.9,59.3c-7.3-0.4-11.9-0.2-20-0.2c-39.2,0-71,4.9-71,10.9"/>
<path class="st0" d="M150.7,14.1c1-1.4,2.4-5.3-1.5-7.4c-3.9-2.2-8.9,5.2-9.4,5.9L90.3,78.8c4.1,0.2,9.2-0.1,13.4-0.4L150.7,14.1z"
	/>
</svg>
