<?xml version="1.0" encoding="utf-8"?>
<!-- Generator: Adobe Illustrator 21.1.0, SVG Export Plug-In . SVG Version: 6.00 Build 0)  -->
<svg version="1.1" id="Layer_1" xmlns="http://www.w3.org/2000/svg" xmlns:xlink="http://www.w3.org/1999/xlink" x="0px" y="0px"
	 viewBox="0 0 141 214" style="enable-background:new 0 0 141 214;" xml:space="preserve">
<style type="text/css">
	.st0{fill:none;stroke:#2C0147;stroke-width:3;stroke-linecap:round;stroke-linejoin:round;stroke-miterlimit:10;}
	.st1{fill:none;stroke:#2C0147;stroke-linecap:round;stroke-linejoin:round;stroke-miterlimit:10;}
	.st2{fill:#FFE6BE;stroke:#2C0147;stroke-linecap:round;stroke-linejoin:round;stroke-miterlimit:10;}
	.st3{fill:#C82027;stroke:#2C0147;stroke-linecap:round;stroke-linejoin:round;stroke-miterlimit:10;}
</style>
<path class="st0" d="M4.7,143.8l20.1,58c0,0-1.2,6.2,16.9,6.2s64.6,0,64.6,0s5.1-0.9,9.3-11.8s18.1-52.3,18.1-52.3"/>
<path class="st0" d="M12.6,126.3c-13.1-17.4,13.8-22,13.8-22C12.1,88.6,37.6,82.6,37.6,82.6c0-19.7,20.8-23.7,20.8-23.7
	C70.5,72.6,83,61,83,61c14.9,7.3,13.7,19.4,13.7,19.4c28.6,8.8,17.5,23.8,17.5,23.8c28.2,7.8,19.4,39.6,19.4,39.6l-16.3,9.1
	l-2.2-10.7l-12.7,8.8l-6.9-9l-9.8,9.8l-7.1-9.7l-9.3,10.7l-9.1-10l-8.8,10l-9.3-10.5l-6.6,9.3l-11-9.1l-4.6,9.1l-15.1-8.1
	C2.5,136.7,12.6,126.3,12.6,126.3"/>
<path class="st0" d="M87.2,48.8c0,15.4-14,16.2-15.8,16.2c-8.7,0-16.5-7.3-16.5-15.9s7.8-15.9,16.5-15.9
	C80.1,33.3,87.2,40.2,87.2,48.8z"/>
<path class="st1" d="M132.7,126.3c-17.9,1.7-41.9,8.6-63.8,8.3c-30.2-0.4-56.3-8.3-56.3-8.3"/>
<line class="st1" x1="33.1" y1="197.5" x2="19.8" y2="151.9"/>
<line class="st1" x1="44" y1="197.5" x2="39.4" y2="175.9"/>
<line class="st1" x1="39.4" y1="169.2" x2="35.8" y2="153.1"/>
<line class="st1" x1="56.8" y1="197.5" x2="51.3" y2="153.1"/>
<line class="st1" x1="69.1" y1="197.5" x2="69.1" y2="187.6"/>
<line class="st1" x1="69.1" y1="183.2" x2="69.1" y2="154.9"/>
<line class="st1" x1="80.2" y1="197.5" x2="85.8" y2="153.1"/>
<line class="st1" x1="93.3" y1="198.4" x2="96.9" y2="175.9"/>
<line class="st1" x1="98.1" y1="169.2" x2="102.4" y2="151.2"/>
<line class="st1" x1="104.7" y1="197.5" x2="117.3" y2="153.1"/>
<path class="st2" d="M71.3,57.9"/>
<path class="st3" d="M71.4,41.7"/>
<path class="st1" d="M69.1,33.3c0,0,1.6-21.3-21.4-25.8"/>
<path class="st1" d="M71.6,40.3c0,0,5.6,1.7,6.7,7.1"/>
<line class="st1" x1="57.9" y1="69.6" x2="72.4" y2="65.6"/>
<path class="st1" d="M37.6,82.7c0,0,9.8,6.4,38.4-5.5"/>
<path class="st1" d="M96.7,80.5c0,0-3.4,8.2-19.4,9.7"/>
<path class="st1" d="M114.1,104.3c0,0-5.4,5.3-10.1,5.6"/>
<path class="st1" d="M26.4,104.3c0,0,19.1,14.2,66.1-3"/>
</svg>
