<?xml version="1.0" encoding="utf-8"?>
<!-- Generator: Adobe Illustrator 21.1.0, SVG Export Plug-In . SVG Version: 6.00 Build 0)  -->
<svg version="1.1" id="Layer_1" xmlns="http://www.w3.org/2000/svg" xmlns:xlink="http://www.w3.org/1999/xlink" x="0px" y="0px"
	 viewBox="0 0 184 184" style="enable-background:new 0 0 184 184;" xml:space="preserve">
<style type="text/css">
	.st0{fill:#FFFFFF;stroke:#231F20;stroke-width:0.9448;stroke-linecap:round;stroke-linejoin:round;stroke-miterlimit:10;}
	.st1{fill:none;stroke:#231F20;stroke-width:0.9448;stroke-linecap:round;stroke-linejoin:round;stroke-miterlimit:10;}
	.st2{fill:#FFFFFF;stroke:#231F20;stroke-width:2.8343;stroke-linecap:round;stroke-linejoin:round;stroke-miterlimit:10;}
	.st3{fill:none;stroke:#231F20;stroke-width:2.8343;stroke-linecap:round;stroke-linejoin:round;stroke-miterlimit:10;}
</style>
<path class="st0" d="M178.8,101.7c0,10.4-38.6,24.7-86.1,24.7S6.5,112,6.5,101.7"/>
<path class="st1" d="M178.8,108c0,10.4-38.6,23.7-86.1,23.7S6.5,118.3,6.5,108"/>
<g>
	<path class="st2" d="M6.5,102.7c0-10.4,38.6-18.7,86.1-18.7s86.1,8.4,86.1,18.7"/>
	<path class="st2" d="M92.6,178.3c-47.6,0-85.8-11.1-85.8-21.4"/>
	<path class="st2" d="M178.8,156.5c0,10.4-38.6,21.7-86.1,21.7"/>
	<path class="st2" d="M153.1,56.5v43.1c0,0-11.5,11.9-60.5,11.9S31.8,99.5,31.8,99.5V56.5"/>
	<line class="st2" x1="178.8" y1="102.7" x2="178.8" y2="157.2"/>
	<line class="st2" x1="6.8" y1="102.7" x2="6.8" y2="157.2"/>
	<path class="st3" d="M31.8,56.5c0-4.8,27.2-8.7,60.9-8.7s60.9,3.9,60.9,8.7"/>
	<path class="st2" d="M120.4,13.3v38.4c0,0-5.3,5.9-27.8,5.9s-27.9-5.9-27.9-5.9V13.3"/>
	<path class="st3" d="M64.7,13.3c0-4,12.5-7.2,27.9-7.2s27.9,3.2,27.9,7.2"/>
</g>
<path class="st1" d="M120.6,13.3c0,4-12.5,7.2-27.9,7.2s-27.9-3.2-27.9-7.2"/>
<path class="st1" d="M120.6,18.2c0,4-12.5,7.2-27.9,7.2s-27.9-3.2-27.9-7.2"/>
<path class="st1" d="M153.5,56.5c0,4.8-27.2,13.7-60.9,13.7s-60.9-8.9-60.9-13.7"/>
<path class="st1" d="M153.5,62.3c0,4.8-27.6,13.1-61.2,13.1s-60.5-8.3-60.5-13.1"/>
</svg>
