<?xml version="1.0" encoding="utf-8"?>
<!-- Generator: Adobe Illustrator 21.1.0, SVG Export Plug-In . SVG Version: 6.00 Build 0)  -->
<svg version="1.1" id="Layer_1" xmlns="http://www.w3.org/2000/svg" xmlns:xlink="http://www.w3.org/1999/xlink" x="0px" y="0px"
	 viewBox="0 0 325 236.5" style="enable-background:new 0 0 325 236.5;" xml:space="preserve">
<style type="text/css">
	.st0{fill:none;stroke:#000000;stroke-width:3.1121;stroke-linecap:round;stroke-linejoin:round;stroke-miterlimit:10;}
	.st1{fill:#FFFFFF;stroke:#000000;stroke-width:0.8256;stroke-linecap:round;stroke-linejoin:round;stroke-miterlimit:10;}
	.st2{fill:#FCFCFC;stroke:#000000;stroke-width:3.7107;stroke-linecap:round;stroke-linejoin:round;stroke-miterlimit:10;}
	.st3{fill:#FCFCFC;stroke:#000000;stroke-width:1.3125;stroke-linecap:round;stroke-linejoin:round;stroke-miterlimit:10;}
	.st4{fill:#FCFCFC;stroke:#000000;stroke-width:0.7628;stroke-linecap:round;stroke-linejoin:round;stroke-miterlimit:10;}
</style>
<g>
	
		<rect x="48.2" y="102.6" transform="matrix(0.9962 -8.724727e-02 8.724727e-02 0.9962 -13.2431 16.3705)" class="st0" width="265" height="114.2"/>
	
		<rect x="61.3" y="121.4" transform="matrix(0.9962 -8.724727e-02 8.724727e-02 0.9962 -12.2019 7.8186)" class="st1" width="44.1" height="44.1"/>
	
		<rect x="65.8" y="125.9" transform="matrix(0.9962 -8.724727e-02 8.724727e-02 0.9962 -12.2019 7.8186)" class="st1" width="35.1" height="35.1"/>
	
		<rect x="108.9" y="117.3" transform="matrix(0.9962 -8.724727e-02 8.724727e-02 0.9962 -11.6559 11.9615)" class="st1" width="44.1" height="44.1"/>
	
		<rect x="113.5" y="121.8" transform="matrix(0.9962 -8.724727e-02 8.724727e-02 0.9962 -11.6559 11.9615)" class="st1" width="35.1" height="35.1"/>
	
		<rect x="156.6" y="113.1" transform="matrix(0.9962 -8.724727e-02 8.724727e-02 0.9962 -11.1099 16.1043)" class="st1" width="44.1" height="44.1"/>
	
		<rect x="161.1" y="117.6" transform="matrix(0.9962 -8.724727e-02 8.724727e-02 0.9962 -11.1099 16.1043)" class="st1" width="35.1" height="35.1"/>
	
		<rect x="204.3" y="108.9" transform="matrix(0.9962 -8.724727e-02 8.724727e-02 0.9962 -10.5639 20.2471)" class="st1" width="44.1" height="44.1"/>
	
		<rect x="208.8" y="113.4" transform="matrix(0.9962 -8.724727e-02 8.724727e-02 0.9962 -10.5639 20.2471)" class="st1" width="35.1" height="35.1"/>
	
		<rect x="251.9" y="104.7" transform="matrix(0.9962 -8.724727e-02 8.724727e-02 0.9962 -10.0179 24.3899)" class="st1" width="44.1" height="44.1"/>
	
		<rect x="256.5" y="109.2" transform="matrix(0.9962 -8.724727e-02 8.724727e-02 0.9962 -10.0179 24.3899)" class="st1" width="35.1" height="35.1"/>
	
		<rect x="65.5" y="169.5" transform="matrix(0.9962 -8.724727e-02 8.724727e-02 0.9962 -16.3792 8.3692)" class="st1" width="44.1" height="44.1"/>
	
		<rect x="70" y="174" transform="matrix(0.9962 -8.724727e-02 8.724727e-02 0.9962 -16.3792 8.3692)" class="st1" width="35.1" height="35.1"/>
	
		<rect x="113.2" y="165.3" transform="matrix(0.9962 -8.724727e-02 8.724727e-02 0.9962 -15.8332 12.512)" class="st1" width="44.1" height="44.1"/>
	
		<rect x="117.7" y="169.8" transform="matrix(0.9962 -8.724727e-02 8.724727e-02 0.9962 -15.8332 12.512)" class="st1" width="35.1" height="35.1"/>
	
		<rect x="160.8" y="161.1" transform="matrix(0.9962 -8.724727e-02 8.724727e-02 0.9962 -15.2872 16.6548)" class="st1" width="44.1" height="44.1"/>
	
		<rect x="165.3" y="165.7" transform="matrix(0.9962 -8.724727e-02 8.724727e-02 0.9962 -15.2872 16.6548)" class="st1" width="35.1" height="35.1"/>
	
		<rect x="208.5" y="157" transform="matrix(0.9962 -8.724727e-02 8.724727e-02 0.9962 -14.7412 20.7976)" class="st1" width="44.1" height="44.1"/>
	
		<rect x="213" y="161.5" transform="matrix(0.9962 -8.724727e-02 8.724727e-02 0.9962 -14.7412 20.7976)" class="st1" width="35.1" height="35.1"/>
	
		<rect x="256.2" y="152.8" transform="matrix(0.9962 -8.724727e-02 8.724727e-02 0.9962 -14.1952 24.9404)" class="st1" width="44.1" height="44.1"/>
	
		<rect x="260.7" y="157.3" transform="matrix(0.9962 -8.724727e-02 8.724727e-02 0.9962 -14.1952 24.9404)" class="st1" width="35.1" height="35.1"/>
</g>
<g>
	<path class="st2" d="M196.7,69.8c18,42.4-10,110.3-42.8,124.3c-33.1,14.1-99-12.4-117-54.8c-11.9-28.1-10.2-59.6,10.6-75.8
		c10.6-8.3,30.5-2.4,47.8-9.8c18.7-7.9,29.4-26.6,43.5-28C163,23.2,185.3,43,196.7,69.8z"/>
	<path class="st2" d="M138.7,25.7c0,0-47.4,5.2-91.3,37.8"/>
	<path class="st3" d="M91.3,61.8c0,0,59.1-52.6,85.1-56.9c0,0-21-3.7-64.3,24.2c0,0,6.6-11.7,18.9-18.5c0,0-22.9,6.6-31.9,17.7
		c0,0-12.2,1-13.9-9.3c0,0-6.3,10-1.3,16.8c0,0-31.4,2.8-47.8,16.1c0,0,19.1-7.1,28.6-3.2c0,0-30.4,8.7-57.4,35.4
		c0,0,32-17.3,64.6-18.5C82.7,65.3,91.3,61.8,91.3,61.8z"/>
	<g>
		<path class="st4" d="M57.4,107.8c1.4,3.2,1.5,8-0.5,8.8c-2,0.8-5.3-2.5-6.7-5.7c-1.4-3.2-0.3-5.2,1.7-6
			C53.9,104,56.1,104.6,57.4,107.8z"/>
		<path class="st4" d="M65.7,123.8c3,1.8,6,5.5,4.9,7.4s-5.8,1.2-8.8-0.6c-3-1.8-3.3-4-2.2-5.8C60.6,122.9,62.7,122.1,65.7,123.8z"
			/>
		<path class="st4" d="M78.9,137.8c0.9-3.4,3.7-7.2,5.8-6.7c2.1,0.5,2.7,5.2,1.8,8.6c-0.9,3.4-2.9,4.3-5,3.7
			C79.4,142.9,78,141.2,78.9,137.8z"/>
		<path class="st4" d="M102.6,143c1.3,3.3,1.2,8-0.8,8.8c-2,0.8-5.2-2.7-6.5-6c-1.3-3.3-0.1-5.2,1.9-5.9
			C99.2,139.1,101.3,139.7,102.6,143z"/>
		<path class="st4" d="M104,162.1c2.8-2.1,7.4-3.3,8.7-1.5s-1.2,5.8-4.1,7.8c-2.8,2.1-5,1.5-6.2-0.3S101.2,164.2,104,162.1z"/>
		<path class="st4" d="M123.5,160.9c2.8-2.1,7.4-3.3,8.7-1.5c1.3,1.7-1.2,5.8-4.1,7.8c-2.8,2.1-5,1.5-6.2-0.3
			C120.7,165.2,120.7,163,123.5,160.9z"/>
		<path class="st4" d="M76.1,109.8c3.5-0.7,8.1,0.2,8.5,2.3c0.4,2.1-3.5,4.7-7,5.4c-3.5,0.7-5.1-0.8-5.5-2.9S72.6,110.5,76.1,109.8z
			"/>
		<path class="st4" d="M65.2,96.4c3-1.9,7.6-2.8,8.8-1c1.2,1.8-1.5,5.7-4.5,7.6c-3,1.9-5,1.2-6.2-0.6
			C62.1,100.5,62.2,98.3,65.2,96.4z"/>
		<path class="st4" d="M93.9,82.1c0.1,3.5-1.5,8-3.7,8c-2.2,0.1-4-4.3-4.1-7.8c-0.1-3.5,1.6-4.9,3.8-5C92,77.3,93.8,78.6,93.9,82.1z
			"/>
		<path class="st4" d="M96.3,97.9c3,1.8,6,5.5,4.9,7.4c-1.1,1.9-5.8,1.2-8.8-0.6c-3-1.8-3.3-4-2.2-5.8S93.3,96.1,96.3,97.9z"/>
		<path class="st4" d="M111.5,112c0.9-3.4,3.7-7.2,5.8-6.7c2.1,0.5,2.7,5.2,1.8,8.6c-0.9,3.4-2.9,4.3-5,3.7
			C112,117.2,110.7,115.4,111.5,112z"/>
		<path class="st4" d="M109.8,84.8c3.5-0.7,8.1,0.2,8.5,2.3s-3.5,4.7-7,5.4c-3.5,0.7-5.1-0.8-5.5-2.9
			C105.3,87.4,106.3,85.5,109.8,84.8z"/>
		<path class="st4" d="M98.2,116.9c0.5,3.5-0.6,8.1-2.8,8.4c-2.1,0.3-4.5-3.8-5-7.3c-0.5-3.5,1.1-5.1,3.2-5.4
			C95.8,112.3,97.7,113.4,98.2,116.9z"/>
		<path class="st4" d="M108.9,127.6c2.7,2.3,4.8,6.5,3.4,8.1s-5.9,0.1-8.5-2.2c-2.7-2.3-2.5-4.5-1.1-6.1
			C104.1,125.8,106.3,125.3,108.9,127.6z"/>
		<path class="st4" d="M123.4,149.6c-1.9,2.9-5.8,5.6-7.6,4.4s-0.9-5.8,1.1-8.8c1.9-2.9,4.1-3.1,5.9-1.9
			C124.6,144.6,125.4,146.6,123.4,149.6z"/>
		<path class="st4" d="M157.2,55.2c0.3,3.5-1.1,8-3.2,8.2c-2.2,0.2-4.3-4-4.6-7.5s1.3-5,3.5-5.2C155,50.6,156.9,51.7,157.2,55.2z"/>
		<path class="st4" d="M169.2,80.7c-3,1.8-7.7,2.5-8.8,0.7c-1.1-1.9,1.8-5.6,4.8-7.4c3-1.8,5.1-1,6.2,0.9S172.3,78.9,169.2,80.7z"/>
		<path class="st4" d="M184,89.6c-2.1,2.8-6.2,5.2-7.9,3.9c-1.7-1.3-0.4-5.9,1.7-8.7c2.1-2.8,4.3-2.8,6.1-1.5
			C185.6,84.7,186.2,86.8,184,89.6z"/>
		<path class="st4" d="M161.8,112.7c-1.3-3.3-1.2-8,0.8-8.8c2-0.8,5.2,2.7,6.5,6c1.3,3.3,0.1,5.2-1.9,5.9
			C165.1,116.6,163,116,161.8,112.7z"/>
		<path class="st4" d="M154.2,98.7c-3.5-0.6-7.5-3.2-7.1-5.3c0.4-2.1,5-3.1,8.5-2.4s4.5,2.6,4.1,4.7
			C159.3,97.8,157.6,99.3,154.2,98.7z"/>
		<path class="st4" d="M135.1,90.5c0.3,3.5-1.1,8-3.2,8.2c-2.2,0.2-4.3-4-4.6-7.5c-0.3-3.5,1.3-5,3.5-5.2
			C132.9,85.8,134.8,87,135.1,90.5z"/>
		<path class="st4" d="M145.9,115.5c-3,1.8-7.7,2.5-8.8,0.7c-1.1-1.9,1.8-5.6,4.8-7.4s5.1-1,6.2,0.9S149,113.7,145.9,115.5z"/>
		<path class="st4" d="M130.9,121.9c3,1.8,6,5.5,4.9,7.4c-1.1,1.9-5.8,1.2-8.8-0.6c-3-1.8-3.3-4-2.2-5.8
			C125.8,121,127.8,120.2,130.9,121.9z"/>
		<path class="st4" d="M114.4,65.9c3,1.8,6,5.5,4.9,7.4c-1.1,1.9-5.8,1.2-8.8-0.6c-3-1.8-3.3-4-2.2-5.8
			C109.3,64.9,111.4,64.1,114.4,65.9z"/>
		<path class="st4" d="M146.1,136c0.9-3.4,3.7-7.2,5.8-6.7c2.1,0.5,2.7,5.2,1.8,8.6c-0.9,3.4-2.9,4.3-5,3.7
			C146.6,141.2,145.2,139.5,146.1,136z"/>
		<path class="st4" d="M143.5,151.6c2.7,2.3,4.8,6.5,3.4,8.1c-1.4,1.6-5.9,0.1-8.5-2.2s-2.5-4.5-1.1-6.1
			C138.6,149.8,140.8,149.3,143.5,151.6z"/>
		<path class="st4" d="M171.9,132.5c-3,1.8-7.7,2.5-8.8,0.7c-1.1-1.9,1.8-5.6,4.8-7.4c3-1.8,5.1-1,6.2,0.9
			C175.2,128.5,174.9,130.7,171.9,132.5z"/>
		<path class="st4" d="M146,81.5c-1.6-3.1-2.1-7.8-0.2-8.8s5.5,2.1,7.1,5.2c1.6,3.1,0.7,5.1-1.2,6.1S147.6,84.6,146,81.5z"/>
		<path class="st4" d="M132.3,74.9c-3.3-1.3-6.7-4.5-6-6.5s5.5-2.1,8.8-0.8c3.3,1.3,3.9,3.4,3.1,5.4S135.6,76.2,132.3,74.9z"/>
	</g>
</g>
</svg>
