<?xml version="1.0" encoding="utf-8"?>
<!-- Generator: Adobe Illustrator 21.1.0, SVG Export Plug-In . SVG Version: 6.00 Build 0)  -->
<svg version="1.1" id="Layer_1" xmlns="http://www.w3.org/2000/svg" xmlns:xlink="http://www.w3.org/1999/xlink" x="0px" y="0px"
	 viewBox="0 0 280 169" style="enable-background:new 0 0 280 169;" xml:space="preserve">
<style type="text/css">
	.st0{fill:none;stroke:#000000;stroke-linecap:round;stroke-linejoin:round;stroke-miterlimit:10;}
	.st1{fill:none;stroke:#000000;stroke-width:2;stroke-linecap:round;stroke-linejoin:round;stroke-miterlimit:10;}
	.st2{fill:none;stroke:#000000;stroke-width:2.6399;stroke-linecap:round;stroke-linejoin:round;stroke-miterlimit:10;}
	.st3{fill:#FFFFFF;stroke:#000000;stroke-width:3;stroke-linecap:round;stroke-linejoin:round;stroke-miterlimit:10;}
	.st4{fill:#FFFFFF;stroke:#000000;stroke-width:2;stroke-linecap:round;stroke-linejoin:round;stroke-miterlimit:10;}
	.st5{fill:#FFFFFF;stroke:#000000;stroke-linecap:round;stroke-linejoin:round;stroke-miterlimit:10;}
</style>
<g>
	<path class="st0" d="M163,33.7c0,0-5.2,4.9-11.9,3"/>
	<path class="st0" d="M144.9,34.8c0,0,4.1-5.9,11-5.4"/>
	<path class="st0" d="M141.8,40.2c0,0,6.6-2.7,12.2,1.4"/>
	<path class="st0" d="M169.2,32.6c0,0-1.5,7-8,9.3"/>
</g>
<path class="st0" d="M132.8,43.2c0,0-5.2,4.9-11.9,3"/>
<path class="st0" d="M138,42.2c0,0-2.3,6.4-8.9,8.7"/>
<path class="st0" d="M179.8,17.9c0,0-3.8,6.1-10.7,6"/>
<path class="st0" d="M161,29.8c0,0,5.7-4.4,12.2-1.8"/>
<path class="st0" d="M185.6,15.3c0,0,0.4,7.1-5.3,11.1"/>
<path class="st1" d="M7.1,129.2c0,0,35.4-1.6,50.5-20.4s40.5-20,50.4-27.1c12.3-8.7,9.7-23.4,25.7-29.7c15.2-5.9,53.3-11.8,53.3-25
	s20.2-11.7,20.2-11.7"/>
<path class="st2" d="M9.7,136.8L9.7,136.8c-7.3-12.7-3-28.9,9.7-36.2L175,10.8c12.7-7.3,28.9-3,36.2,9.7l0,0
	c7.3,12.7,3,28.9-9.7,36.2L45.9,146.5C33.2,153.8,17,149.5,9.7,136.8z"/>
<ellipse transform="matrix(0.9826 -0.1859 0.1859 0.9826 -14.4066 36.7764)" class="st3" cx="188.9" cy="95.2" rx="86.1" ry="65.5"/>
<path class="st4" d="M128.5,94.3c-2,12-11.4,22.4-3.6,31.9s18.7,7.7,26.5,12.7s34.3,8.6,44.3,2.8c10-5.9,22.8-10.4,32.8-13.9
	s18.8-8.3,20.3-20.5c1.4-12.2,13.2-3.6,13.2-19s-27.8-31.6-32.5-38.9c-4.7-7.3-20.9-5.9-30.8-5.9s-30.2-0.8-37.2,2.7
	c-7,3.5-13.6,12.4-21.8,17.3C131.4,68.3,130.5,82.3,128.5,94.3z"/>
<ellipse transform="matrix(0.9902 -0.1397 0.1397 0.9902 -10.6901 27.2706)" class="st3" cx="188.9" cy="89.8" rx="16.9" ry="12.7"/>
<g>
	<ellipse class="st5" cx="226.6" cy="95.5" rx="2.2" ry="4.8"/>
	<ellipse transform="matrix(0.5352 -0.8447 0.8447 0.5352 29.0966 243.8394)" class="st5" cx="236.1" cy="95.5" rx="4.8" ry="2.2"/>
	<ellipse transform="matrix(0.4122 -0.9111 0.9111 0.4122 57.3576 262.7013)" class="st5" cx="232.3" cy="86.9" rx="2.2" ry="4.8"/>
	<ellipse transform="matrix(0.8055 -0.5926 0.5926 0.8055 1.3535 143.3203)" class="st5" cx="219" cy="69.6" rx="4.8" ry="2.2"/>
	
		<ellipse transform="matrix(0.9976 -6.955370e-02 6.955370e-02 0.9976 -4.826 15.809)" class="st5" cx="224.6" cy="77.2" rx="4.8" ry="2.2"/>
	<ellipse transform="matrix(0.9782 -0.2079 0.2079 0.9782 -9.3802 49.1669)" class="st5" cx="229.2" cy="69.2" rx="2.2" ry="4.8"/>
	<ellipse transform="matrix(0.8055 -0.5926 0.5926 0.8055 1.5581 155.2098)" class="st5" cx="237.2" cy="75.2" rx="4.8" ry="2.2"/>
	
		<ellipse transform="matrix(0.9976 -6.955370e-02 6.955370e-02 0.9976 -5.171 17.0954)" class="st5" cx="242.9" cy="82.8" rx="4.8" ry="2.2"/>
	<ellipse transform="matrix(0.9782 -0.2079 0.2079 0.9782 -14.2395 52.9129)" class="st5" cx="244.6" cy="94.2" rx="2.2" ry="4.8"/>
	<ellipse transform="matrix(0.6154 -0.7882 0.7882 0.6154 -36.0037 162.2069)" class="st5" cx="148.2" cy="118" rx="4.8" ry="2.2"/>
	<ellipse transform="matrix(0.6154 -0.7882 0.7882 0.6154 -10.56 161.5475)" class="st5" cx="160.3" cy="91.6" rx="4.8" ry="2.2"/>
	
		<ellipse transform="matrix(0.9417 -0.3365 0.3365 0.9417 -29.5184 53.8816)" class="st5" cx="140.7" cy="112.1" rx="4.8" ry="2.2"/>
	<path class="st5" d="M216.1,105.9c3.3,1,6.5,0.9,7.1-0.3s-1.5-2.9-4.8-3.8c-3.3-1-6.5-0.9-7.1,0.3S212.8,104.9,216.1,105.9z"/>
	<path class="st5" d="M209.9,113.9c2.1,2.1,4.8,3.3,6.2,2.6c1.4-0.7,0.8-3-1.3-5.2c-2.1-2.1-4.8-3.3-6.2-2.6
		C207.3,109.5,207.9,111.8,209.9,113.9z"/>
	<path class="st5" d="M227.1,114c2.6-1.8,3.8-4,2.6-4.9c-1.1-0.9-4.2-0.1-6.7,1.7c-2.6,1.8-3.8,4-2.6,4.9
		C221.4,116.5,224.5,115.8,227.1,114z"/>
	<path class="st5" d="M188.5,115.5c3.5-1.7,6.1-4.1,5.6-5.5c-0.4-1.4-3.7-1.1-7.2,0.5c-3.5,1.7-6.1,4.1-5.6,5.5
		S185,117.1,188.5,115.5z"/>
	<path class="st5" d="M190.2,126.4c3.5,0.2,6.8-1,7.3-2.5c0.5-1.6-1.9-3-5.4-3.1c-3.5-0.2-6.8,1-7.3,2.5
		C184.3,124.8,186.7,126.2,190.2,126.4z"/>
	<path class="st5" d="M204.3,113.8c0.6-3.3-0.3-5.9-2-5.8s-3.5,3-4.1,6.3s0.3,5.9,2,5.8C201.9,120,203.7,117.1,204.3,113.8z"/>
	<path class="st5" d="M170.8,124.5c2.6-1.2,4.4-3,4.1-4s-2.7-0.8-5.3,0.4c-2.6,1.2-4.4,3-4.1,4S168.2,125.7,170.8,124.5z"/>
	<path class="st5" d="M172,132.5c2.6,0.1,4.9-0.7,5.3-1.9c0.4-1.1-1.4-2.2-4-2.3c-2.6-0.1-4.9,0.7-5.3,1.9
		C167.7,131.3,169.5,132.4,172,132.5z"/>
	<path class="st5" d="M182.4,123.2c0.4-2.4-0.2-4.4-1.4-4.2c-1.2,0.1-2.6,2.2-3,4.6s0.2,4.4,1.4,4.2S181.9,125.7,182.4,123.2z"/>
	<path class="st5" d="M162.9,107.5c3,1.4,6,1.8,6.8,1c0.7-0.8-1.1-2.6-4.1-4s-6-1.8-6.8-1C158,104.3,159.9,106.1,162.9,107.5z"/>
	<path class="st5" d="M156.1,113c1.7,2.1,4.2,3.5,5.6,3.1c1.4-0.4,1.1-2.4-0.6-4.4c-1.7-2.1-4.2-3.5-5.6-3.1
		C154.1,109,154.4,111,156.1,113z"/>
	<path class="st5" d="M172.3,115.9c2.7-1.1,4-2.7,3.1-3.6c-1-0.9-3.9-0.8-6.6,0.3c-2.7,1.1-4,2.7-3.1,3.6
		C166.7,117.1,169.6,116.9,172.3,115.9z"/>
	<ellipse transform="matrix(0.8333 -0.5529 0.5529 0.8333 -3.7384 124.3519)" class="st5" cx="204.3" cy="68.4" rx="2.2" ry="4.8"/>
	<ellipse transform="matrix(0.408 -0.913 0.913 0.408 67.6108 236.5702)" class="st5" cx="216.2" cy="66.2" rx="2.2" ry="4.8"/>
	<path class="st5" d="M189.8,65.5c2.2-2.6,4.9-4.3,6.1-3.7c1.1,0.6,0.3,3.2-1.9,5.9s-4.9,4.3-6.1,3.7
		C186.7,70.8,187.6,68.1,189.8,65.5z"/>
	<path class="st5" d="M184.2,65.2c0.5-2.9,2.2-5.4,3.7-5.6c1.5-0.2,2.3,2.1,1.8,5s-2.2,5.4-3.7,5.6
		C184.5,70.4,183.7,68.1,184.2,65.2z"/>
	<path class="st5" d="M165.5,75.8c3.9-0.6,7.3,0.1,7.7,1.4c0.4,1.4-2.4,3-6.3,3.5s-7.3-0.1-7.7-1.4
		C158.8,77.9,161.6,76.4,165.5,75.8z"/>
	<path class="st5" d="M160.8,65.7c2.8-2.1,6.2-2.9,7.4-1.9c1.3,1,0,3.5-2.8,5.6s-6.2,2.9-7.4,1.9C156.8,70.3,158,67.8,160.8,65.7z"
		/>
	<path class="st5" d="M179.6,68.5c2.3,2.5,3,5.1,1.6,5.9c-1.5,0.8-4.6-0.5-6.9-3s-3-5.1-1.6-5.9C174.1,64.7,177.2,66,179.6,68.5z"/>
	<path class="st5" d="M154.4,77.4c1.7,1.8,2.2,3.7,1.1,4.3c-1.1,0.6-3.4-0.4-5.1-2.2c-1.7-1.8-2.2-3.7-1.1-4.3
		S152.7,75.6,154.4,77.4z"/>
	<path class="st5" d="M146.9,101.3c1.8-2.8,4-4.8,5.1-4.5s0.5,2.8-1.3,5.6c-1.8,2.8-4,4.8-5.1,4.5
		C144.5,106.6,145.1,104.1,146.9,101.3z"/>
	<path class="st5" d="M138.1,100.5c0.3-2.7,1.6-5.2,2.9-5.7c1.3-0.5,2.2,1.4,1.9,4c-0.3,2.7-1.6,5.2-2.9,5.7
		C138.7,105,137.9,103.1,138.1,100.5z"/>
	<path class="st5" d="M150.1,89.1c2.8-0.6,4.8,0,4.5,1.3s-2.8,2.8-5.6,3.4s-4.8,0-4.5-1.3C144.7,91.2,147.3,89.7,150.1,89.1z"/>
</g>
<g>
	<path class="st0" d="M21.1,119.5c0,0,3.4-6.3,10.3-6.6"/>
	<path class="st0" d="M37.9,112.6c0,0-2,6.9-8.8,8.6"/>
	<path class="st0" d="M39.1,106.5c0,0-5.4,4.7-12,2.5"/>
	<path class="st0" d="M15.5,122.4c0,0-0.8-7.1,4.7-11.4"/>
</g>
<g>
	<path class="st0" d="M52.8,97.7c0,0-5.2,4.9-11.9,3"/>
	<path class="st0" d="M34.7,98.9c0,0,4.1-5.9,11-5.4"/>
	<path class="st0" d="M31.6,104.3c0,0,6.6-2.7,12.2,1.4"/>
	<path class="st0" d="M59,96.7c0,0-1.5,7-8,9.3"/>
</g>
<path class="st0" d="M69.6,82c0,0-3.8,6.1-10.7,6"/>
<path class="st0" d="M50.9,93.9c0,0,5.7-4.4,12.2-1.8"/>
<path class="st0" d="M81.5,84.9c0,0-5,5.1-11.8,3.5"/>
<g>
	<path class="st0" d="M97,71.5c0,0-5.2,4.9-11.9,3"/>
	<path class="st0" d="M78.9,72.7c0,0,4.1-5.9,11-5.4"/>
	<path class="st0" d="M75.8,78.1c0,0,6.6-2.7,12.2,1.4"/>
	<path class="st0" d="M103.3,70.5c0,0-1.5,7-8,9.3"/>
</g>
<path class="st0" d="M113.9,55.7c0,0-3.8,6.1-10.7,6"/>
<path class="st0" d="M95.1,67.6c0,0,5.7-4.4,12.2-1.8"/>
<path class="st0" d="M119.6,53.1c0,0,0.4,7.1-5.3,11.1"/>
</svg>
