<?xml version="1.0" encoding="utf-8"?>
<!-- Generator: Adobe Illustrator 21.1.0, SVG Export Plug-In . SVG Version: 6.00 Build 0)  -->
<svg version="1.1" id="Layer_1" xmlns="http://www.w3.org/2000/svg" xmlns:xlink="http://www.w3.org/1999/xlink" x="0px" y="0px"
	 viewBox="0 0 277 284" style="enable-background:new 0 0 277 284;" xml:space="preserve">
<style type="text/css">
	.st0{fill:#FFFFFF;stroke:#000000;stroke-width:3.4163;stroke-linecap:round;stroke-linejoin:round;stroke-miterlimit:10;}
	.st1{fill:none;stroke:#000000;stroke-width:3.4163;stroke-linecap:round;stroke-linejoin:round;stroke-miterlimit:10;}
	.st2{fill:none;stroke:#000000;stroke-width:3.1328;stroke-linecap:round;stroke-linejoin:round;stroke-miterlimit:10;}
	.st3{fill:#FFFFFF;stroke:#000000;stroke-width:3;stroke-linecap:round;stroke-linejoin:round;stroke-miterlimit:10;}
	.st4{fill:#C82027;stroke:#404040;stroke-width:3;stroke-linecap:round;stroke-linejoin:round;stroke-miterlimit:10;}
	.st5{fill:none;stroke:#000000;stroke-linecap:round;stroke-linejoin:round;stroke-miterlimit:10;}
	.st6{fill:none;stroke:#000000;stroke-width:1.1096;stroke-linecap:round;stroke-linejoin:round;stroke-miterlimit:10;}
</style>
<g>
	<path class="st0" d="M6.5,188.2c0,0-2.9,89.2,133.3,89c136.2-0.2,130-89.4,130-89.4"/>
	<path class="st1" d="M6.5,188.2c0-6.6,13.9-22.6,49.4-25.6"/>
	<path class="st1" d="M58.6,213.5c-31.7-5.8-52.1-14.9-52.1-25.3 M58.6,213.5c22.1,4,49.7,6.4,79.5,6.3
		c72.7-0.1,131.6-14.5,131.6-32"/>
	<path class="st1" d="M221.7,162.7c33.1,2.7,48.1,18.5,48.1,25.1"/>
</g>
<path class="st2" d="M71,214.1c-9.7-11.9-15.4-26.5-15.4-42.3c0-40.2,37.3-72.8,83.2-72.8s83.2,32.6,83.2,72.8
	c0,15.6-5.6,30.1-15.2,42"/>
<path class="st3" d="M198.2,128.9c-6.5,22.3-28.6,38.8-54.8,38.8c-28.7,0-52.4-19.7-56.2-45.2"/>
<path class="st3" d="M87.1,122.4c-0.3-2.3-0.5-4.7-0.5-7.2c0-28.9,25.4-52.4,56.8-52.4s56.8,23.4,56.8,52.4c0,4.7-0.7,9.3-1.9,13.6"
	/>
<path class="st3" d="M176.4,70.8c0,23-20.9,24.2-23.5,24.2c-13,0-24.5-10.9-24.5-23.6s11.6-23.6,24.5-23.6S176.4,58,176.4,70.8z"/>
<path class="st4" d="M141,57.6"/>
<path class="st5" d="M149.5,47.7c0,0,2.4-31.7-31.8-38.4"/>
<path class="st5" d="M153.2,58.1c0,0,8.3,2.5,10,10.6"/>
<path class="st5" d="M102.4,80.6c0,0-0.8,15.4,9.3,24.3s9.7,11.7,8.5,23.5c-1.2,11.7,11.3,21.2,15,16.3c4.7-6.3,2.5-14.6,9.7-22.8
	c7.3-8.1,8.9-4.1,17-4.1s13.8-9.7,22.3-10.9c8.5-1.2,6.8-18.8,5.9-21.6"/>
<path class="st6" d="M87.5,127.2c0,0-18,19.9,4.1,30.8c13.7,6.8,21,13.3,19.5,25.1c-1.5,11.7,22.2,10.6,26.7,5.7
	c5.7-6.3,14.7-16.2,24.7-16.2s17-9.7,27.4-10.9c10.5-1.2,9.4-27.1,8.2-29.9"/>
</svg>
